<?xml version="1.0" encoding="UTF-8" standalone="no"?>
<!DOCTYPE svg PUBLIC "-//W3C//DTD SVG 1.1//EN"
 "http://www.w3.org/Graphics/SVG/1.1/DTD/svg11.dtd">
<!-- Generated by graphviz version 2.26.0 (20091210.2329)
 -->
<!-- Title: snakemake_dag Pages: 1 -->
<svg width="694pt" height="500pt"
 viewBox="0.00 0.00 694.00 500.00" xmlns="http://www.w3.org/2000/svg" xmlns:xlink="http://www.w3.org/1999/xlink">
<g id="graph1" class="graph" transform="scale(1 1) rotate(0) translate(4 496)">
<title>snakemake_dag</title>
<polygon fill="white" stroke="white" points="-4,5 -4,-496 691,-496 691,5 -4,5"/>
<!-- 0 -->
<g id="node1" class="node"><title>0</title>
<polyline fill="none" stroke="#d85656" stroke-width="2" points="58,-396 12,-396 "/>
<path fill="none" stroke="#d85656" stroke-width="2" d="M12,-396C6,-396 2.96059e-14,-390 2.36848e-14,-384"/>
<polyline fill="none" stroke="#d85656" stroke-width="2" points="2.36848e-14,-384 1.18424e-14,-372 "/>
<path fill="none" stroke="#d85656" stroke-width="2" d="M1.18424e-14,-372C5.92119e-15,-366 6,-360 12,-360"/>
<polyline fill="none" stroke="#d85656" stroke-width="2" points="12,-360 58,-360 "/>
<path fill="none" stroke="#d85656" stroke-width="2" d="M58,-360C64,-360 70,-366 70,-372"/>
<polyline fill="none" stroke="#d85656" stroke-width="2" points="70,-372 70,-384 "/>
<path fill="none" stroke="#d85656" stroke-width="2" d="M70,-384C70,-390 64,-396 58,-396"/>
<text text-anchor="middle" x="35" y="-382" font-family="sans" font-size="10.00">subsample</text>
<text text-anchor="middle" x="35" y="-369" font-family="sans" font-size="10.00">R: R2</text>
</g>
<!-- 7 -->
<g id="node8" class="node"><title>7</title>
<polyline fill="none" stroke="#59d856" stroke-width="2" points="138,-324 108,-324 "/>
<path fill="none" stroke="#59d856" stroke-width="2" d="M108,-324C102,-324 96,-318 96,-312"/>
<polyline fill="none" stroke="#59d856" stroke-width="2" points="96,-312 96,-300 "/>
<path fill="none" stroke="#59d856" stroke-width="2" d="M96,-300C96,-294 102,-288 108,-288"/>
<polyline fill="none" stroke="#59d856" stroke-width="2" points="108,-288 138,-288 "/>
<path fill="none" stroke="#59d856" stroke-width="2" d="M138,-288C144,-288 150,-294 150,-300"/>
<polyline fill="none" stroke="#59d856" stroke-width="2" points="150,-300 150,-312 "/>
<path fill="none" stroke="#59d856" stroke-width="2" d="M150,-312C150,-318 144,-324 138,-324"/>
<text text-anchor="middle" x="123" y="-303.5" font-family="sans" font-size="10.00">clean</text>
</g>
<!-- 0&#45;&gt;7 -->
<g id="edge14" class="edge"><title>0&#45;&gt;7</title>
<path fill="none" stroke="grey" stroke-width="2" d="M57.2061,-359.831C68.045,-350.963 81.2444,-340.164 92.9678,-330.572"/>
<polygon fill="grey" stroke="grey" points="95.2777,-333.204 100.801,-324.163 90.845,-327.786 95.2777,-333.204"/>
</g>
<!-- 1 -->
<g id="node2" class="node"><title>1</title>
<polyline fill="none" stroke="#d85656" stroke-width="2" points="586,-396 540,-396 "/>
<path fill="none" stroke="#d85656" stroke-width="2" d="M540,-396C534,-396 528,-390 528,-384"/>
<polyline fill="none" stroke="#d85656" stroke-width="2" points="528,-384 528,-372 "/>
<path fill="none" stroke="#d85656" stroke-width="2" d="M528,-372C528,-366 534,-360 540,-360"/>
<polyline fill="none" stroke="#d85656" stroke-width="2" points="540,-360 586,-360 "/>
<path fill="none" stroke="#d85656" stroke-width="2" d="M586,-360C592,-360 598,-366 598,-372"/>
<polyline fill="none" stroke="#d85656" stroke-width="2" points="598,-372 598,-384 "/>
<path fill="none" stroke="#d85656" stroke-width="2" d="M598,-384C598,-390 592,-396 586,-396"/>
<text text-anchor="middle" x="563" y="-382" font-family="sans" font-size="10.00">subsample</text>
<text text-anchor="middle" x="563" y="-369" font-family="sans" font-size="10.00">R: R2</text>
</g>
<!-- 2 -->
<g id="node3" class="node"><title>2</title>
<polyline fill="none" stroke="#59d856" stroke-width="2" points="578,-324 548,-324 "/>
<path fill="none" stroke="#59d856" stroke-width="2" d="M548,-324C542,-324 536,-318 536,-312"/>
<polyline fill="none" stroke="#59d856" stroke-width="2" points="536,-312 536,-300 "/>
<path fill="none" stroke="#59d856" stroke-width="2" d="M536,-300C536,-294 542,-288 548,-288"/>
<polyline fill="none" stroke="#59d856" stroke-width="2" points="548,-288 578,-288 "/>
<path fill="none" stroke="#59d856" stroke-width="2" d="M578,-288C584,-288 590,-294 590,-300"/>
<polyline fill="none" stroke="#59d856" stroke-width="2" points="590,-300 590,-312 "/>
<path fill="none" stroke="#59d856" stroke-width="2" d="M590,-312C590,-318 584,-324 578,-324"/>
<text text-anchor="middle" x="563" y="-303.5" font-family="sans" font-size="10.00">clean</text>
</g>
<!-- 1&#45;&gt;2 -->
<g id="edge6" class="edge"><title>1&#45;&gt;2</title>
<path fill="none" stroke="grey" stroke-width="2" d="M563,-359.831C563,-352.131 563,-342.974 563,-334.417"/>
<polygon fill="grey" stroke="grey" points="566.5,-334.413 563,-324.413 559.5,-334.413 566.5,-334.413"/>
</g>
<!-- 4 -->
<g id="node5" class="node"><title>4</title>
<polyline fill="none" stroke="#d6d856" stroke-width="2" points="579,-252 523,-252 "/>
<path fill="none" stroke="#d6d856" stroke-width="2" d="M523,-252C517,-252 511,-246 511,-240"/>
<polyline fill="none" stroke="#d6d856" stroke-width="2" points="511,-240 511,-228 "/>
<path fill="none" stroke="#d6d856" stroke-width="2" d="M511,-228C511,-222 517,-216 523,-216"/>
<polyline fill="none" stroke="#d6d856" stroke-width="2" points="523,-216 579,-216 "/>
<path fill="none" stroke="#d6d856" stroke-width="2" d="M579,-216C585,-216 591,-222 591,-228"/>
<polyline fill="none" stroke="#d6d856" stroke-width="2" points="591,-228 591,-240 "/>
<path fill="none" stroke="#d6d856" stroke-width="2" d="M591,-240C591,-246 585,-252 579,-252"/>
<text text-anchor="middle" x="551" y="-231.5" font-family="sans" font-size="10.00">metaspades</text>
</g>
<!-- 2&#45;&gt;4 -->
<g id="edge12" class="edge"><title>2&#45;&gt;4</title>
<path fill="none" stroke="grey" stroke-width="2" d="M559.972,-287.831C558.688,-280.131 557.162,-270.974 555.736,-262.417"/>
<polygon fill="grey" stroke="grey" points="559.165,-261.702 554.069,-252.413 552.261,-262.853 559.165,-261.702"/>
</g>
<!-- 3 -->
<g id="node4" class="node"><title>3</title>
<polyline fill="none" stroke="#d85656" stroke-width="2" points="234,-396 188,-396 "/>
<path fill="none" stroke="#d85656" stroke-width="2" d="M188,-396C182,-396 176,-390 176,-384"/>
<polyline fill="none" stroke="#d85656" stroke-width="2" points="176,-384 176,-372 "/>
<path fill="none" stroke="#d85656" stroke-width="2" d="M176,-372C176,-366 182,-360 188,-360"/>
<polyline fill="none" stroke="#d85656" stroke-width="2" points="188,-360 234,-360 "/>
<path fill="none" stroke="#d85656" stroke-width="2" d="M234,-360C240,-360 246,-366 246,-372"/>
<polyline fill="none" stroke="#d85656" stroke-width="2" points="246,-372 246,-384 "/>
<path fill="none" stroke="#d85656" stroke-width="2" d="M246,-384C246,-390 240,-396 234,-396"/>
<text text-anchor="middle" x="211" y="-382" font-family="sans" font-size="10.00">subsample</text>
<text text-anchor="middle" x="211" y="-369" font-family="sans" font-size="10.00">R: R2</text>
</g>
<!-- 22 -->
<g id="node23" class="node"><title>22</title>
<polyline fill="none" stroke="#59d856" stroke-width="2" points="286,-324 256,-324 "/>
<path fill="none" stroke="#59d856" stroke-width="2" d="M256,-324C250,-324 244,-318 244,-312"/>
<polyline fill="none" stroke="#59d856" stroke-width="2" points="244,-312 244,-300 "/>
<path fill="none" stroke="#59d856" stroke-width="2" d="M244,-300C244,-294 250,-288 256,-288"/>
<polyline fill="none" stroke="#59d856" stroke-width="2" points="256,-288 286,-288 "/>
<path fill="none" stroke="#59d856" stroke-width="2" d="M286,-288C292,-288 298,-294 298,-300"/>
<polyline fill="none" stroke="#59d856" stroke-width="2" points="298,-300 298,-312 "/>
<path fill="none" stroke="#59d856" stroke-width="2" d="M298,-312C298,-318 292,-324 286,-324"/>
<text text-anchor="middle" x="271" y="-303.5" font-family="sans" font-size="10.00">clean</text>
</g>
<!-- 3&#45;&gt;22 -->
<g id="edge58" class="edge"><title>3&#45;&gt;22</title>
<path fill="none" stroke="grey" stroke-width="2" d="M226.141,-359.831C233.122,-351.454 241.539,-341.353 249.188,-332.175"/>
<polygon fill="grey" stroke="grey" points="251.943,-334.336 255.656,-324.413 246.565,-329.855 251.943,-334.336"/>
</g>
<!-- 24 -->
<g id="node25" class="node"><title>24</title>
<polyline fill="none" stroke="#569ad8" stroke-width="2" points="570,-180 484,-180 "/>
<path fill="none" stroke="#569ad8" stroke-width="2" d="M484,-180C478,-180 472,-174 472,-168"/>
<polyline fill="none" stroke="#569ad8" stroke-width="2" points="472,-168 472,-156 "/>
<path fill="none" stroke="#569ad8" stroke-width="2" d="M472,-156C472,-150 478,-144 484,-144"/>
<polyline fill="none" stroke="#569ad8" stroke-width="2" points="484,-144 570,-144 "/>
<path fill="none" stroke="#569ad8" stroke-width="2" d="M570,-144C576,-144 582,-150 582,-156"/>
<polyline fill="none" stroke="#569ad8" stroke-width="2" points="582,-156 582,-168 "/>
<path fill="none" stroke="#569ad8" stroke-width="2" d="M582,-168C582,-174 576,-180 570,-180"/>
<text text-anchor="middle" x="527" y="-159.5" font-family="sans" font-size="10.00">gather_assemblies</text>
</g>
<!-- 4&#45;&gt;24 -->
<g id="edge62" class="edge"><title>4&#45;&gt;24</title>
<path fill="none" stroke="grey" stroke-width="2" d="M544.944,-215.831C542.349,-208.046 539.258,-198.773 536.378,-190.135"/>
<polygon fill="grey" stroke="grey" points="539.62,-188.793 533.138,-180.413 532.98,-191.007 539.62,-188.793"/>
</g>
<!-- 5 -->
<g id="node6" class="node"><title>5</title>
<polyline fill="none" stroke="#56d89a" stroke-width="2" points="119,-492 39,-492 "/>
<path fill="none" stroke="#56d89a" stroke-width="2" d="M39,-492C33,-492 27,-486 27,-480"/>
<polyline fill="none" stroke="#56d89a" stroke-width="2" points="27,-480 27,-444 "/>
<path fill="none" stroke="#56d89a" stroke-width="2" d="M27,-444C27,-438 33,-432 39,-432"/>
<polyline fill="none" stroke="#56d89a" stroke-width="2" points="39,-432 119,-432 "/>
<path fill="none" stroke="#56d89a" stroke-width="2" d="M119,-432C125,-432 131,-438 131,-444"/>
<polyline fill="none" stroke="#56d89a" stroke-width="2" points="131,-444 131,-480 "/>
<path fill="none" stroke="#56d89a" stroke-width="2" d="M131,-480C131,-486 125,-492 119,-492"/>
<text text-anchor="middle" x="79" y="-479" font-family="sans" font-size="10.00">combine</text>
<text text-anchor="middle" x="79" y="-466" font-family="sans" font-size="10.00">prep: TruSeqNano</text>
<text text-anchor="middle" x="79" y="-453" font-family="sans" font-size="10.00">sample: 18825</text>
<text text-anchor="middle" x="79" y="-440" font-family="sans" font-size="10.00">size: 400</text>
</g>
<!-- 5&#45;&gt;0 -->
<g id="edge2" class="edge"><title>5&#45;&gt;0</title>
<path fill="none" stroke="grey" stroke-width="2" d="M63.115,-431.674C58.608,-423.07 53.7291,-413.755 49.3206,-405.339"/>
<polygon fill="grey" stroke="grey" points="52.3286,-403.539 44.588,-396.304 46.1277,-406.787 52.3286,-403.539"/>
</g>
<!-- 28 -->
<g id="node29" class="node"><title>28</title>
<polyline fill="none" stroke="#d85656" stroke-width="2" points="146,-396 100,-396 "/>
<path fill="none" stroke="#d85656" stroke-width="2" d="M100,-396C94,-396 88,-390 88,-384"/>
<polyline fill="none" stroke="#d85656" stroke-width="2" points="88,-384 88,-372 "/>
<path fill="none" stroke="#d85656" stroke-width="2" d="M88,-372C88,-366 94,-360 100,-360"/>
<polyline fill="none" stroke="#d85656" stroke-width="2" points="100,-360 146,-360 "/>
<path fill="none" stroke="#d85656" stroke-width="2" d="M146,-360C152,-360 158,-366 158,-372"/>
<polyline fill="none" stroke="#d85656" stroke-width="2" points="158,-372 158,-384 "/>
<path fill="none" stroke="#d85656" stroke-width="2" d="M158,-384C158,-390 152,-396 146,-396"/>
<text text-anchor="middle" x="123" y="-382" font-family="sans" font-size="10.00">subsample</text>
<text text-anchor="middle" x="123" y="-369" font-family="sans" font-size="10.00">R: R1</text>
</g>
<!-- 5&#45;&gt;28 -->
<g id="edge72" class="edge"><title>5&#45;&gt;28</title>
<path fill="none" stroke="grey" stroke-width="2" d="M94.885,-431.674C99.392,-423.07 104.271,-413.755 108.679,-405.339"/>
<polygon fill="grey" stroke="grey" points="111.872,-406.787 113.412,-396.304 105.671,-403.539 111.872,-406.787"/>
</g>
<!-- 6 -->
<g id="node7" class="node"><title>6</title>
<polyline fill="none" stroke="#56d89a" stroke-width="2" points="469,-492 393,-492 "/>
<path fill="none" stroke="#56d89a" stroke-width="2" d="M393,-492C387,-492 381,-486 381,-480"/>
<polyline fill="none" stroke="#56d89a" stroke-width="2" points="381,-480 381,-444 "/>
<path fill="none" stroke="#56d89a" stroke-width="2" d="M381,-444C381,-438 387,-432 393,-432"/>
<polyline fill="none" stroke="#56d89a" stroke-width="2" points="393,-432 469,-432 "/>
<path fill="none" stroke="#56d89a" stroke-width="2" d="M469,-432C475,-432 481,-438 481,-444"/>
<polyline fill="none" stroke="#56d89a" stroke-width="2" points="481,-444 481,-480 "/>
<path fill="none" stroke="#56d89a" stroke-width="2" d="M481,-480C481,-486 475,-492 469,-492"/>
<text text-anchor="middle" x="431" y="-479" font-family="sans" font-size="10.00">combine</text>
<text text-anchor="middle" x="431" y="-466" font-family="sans" font-size="10.00">prep: NexteraXT</text>
<text text-anchor="middle" x="431" y="-453" font-family="sans" font-size="10.00">sample: 20535</text>
<text text-anchor="middle" x="431" y="-440" font-family="sans" font-size="10.00">size: 400</text>
</g>
<!-- 10 -->
<g id="node11" class="node"><title>10</title>
<polyline fill="none" stroke="#d85656" stroke-width="2" points="410,-396 364,-396 "/>
<path fill="none" stroke="#d85656" stroke-width="2" d="M364,-396C358,-396 352,-390 352,-384"/>
<polyline fill="none" stroke="#d85656" stroke-width="2" points="352,-384 352,-372 "/>
<path fill="none" stroke="#d85656" stroke-width="2" d="M352,-372C352,-366 358,-360 364,-360"/>
<polyline fill="none" stroke="#d85656" stroke-width="2" points="364,-360 410,-360 "/>
<path fill="none" stroke="#d85656" stroke-width="2" d="M410,-360C416,-360 422,-366 422,-372"/>
<polyline fill="none" stroke="#d85656" stroke-width="2" points="422,-372 422,-384 "/>
<path fill="none" stroke="#d85656" stroke-width="2" d="M422,-384C422,-390 416,-396 410,-396"/>
<text text-anchor="middle" x="387" y="-382" font-family="sans" font-size="10.00">subsample</text>
<text text-anchor="middle" x="387" y="-369" font-family="sans" font-size="10.00">R: R1</text>
</g>
<!-- 6&#45;&gt;10 -->
<g id="edge20" class="edge"><title>6&#45;&gt;10</title>
<path fill="none" stroke="grey" stroke-width="2" d="M415.115,-431.674C410.608,-423.07 405.729,-413.755 401.321,-405.339"/>
<polygon fill="grey" stroke="grey" points="404.329,-403.539 396.588,-396.304 398.128,-406.787 404.329,-403.539"/>
</g>
<!-- 25 -->
<g id="node26" class="node"><title>25</title>
<polyline fill="none" stroke="#d85656" stroke-width="2" points="498,-396 452,-396 "/>
<path fill="none" stroke="#d85656" stroke-width="2" d="M452,-396C446,-396 440,-390 440,-384"/>
<polyline fill="none" stroke="#d85656" stroke-width="2" points="440,-384 440,-372 "/>
<path fill="none" stroke="#d85656" stroke-width="2" d="M440,-372C440,-366 446,-360 452,-360"/>
<polyline fill="none" stroke="#d85656" stroke-width="2" points="452,-360 498,-360 "/>
<path fill="none" stroke="#d85656" stroke-width="2" d="M498,-360C504,-360 510,-366 510,-372"/>
<polyline fill="none" stroke="#d85656" stroke-width="2" points="510,-372 510,-384 "/>
<path fill="none" stroke="#d85656" stroke-width="2" d="M510,-384C510,-390 504,-396 498,-396"/>
<text text-anchor="middle" x="475" y="-382" font-family="sans" font-size="10.00">subsample</text>
<text text-anchor="middle" x="475" y="-369" font-family="sans" font-size="10.00">R: R2</text>
</g>
<!-- 6&#45;&gt;25 -->
<g id="edge64" class="edge"><title>6&#45;&gt;25</title>
<path fill="none" stroke="grey" stroke-width="2" d="M446.885,-431.674C451.392,-423.07 456.271,-413.755 460.679,-405.339"/>
<polygon fill="grey" stroke="grey" points="463.872,-406.787 465.412,-396.304 457.671,-403.539 463.872,-406.787"/>
</g>
<!-- 26 -->
<g id="node27" class="node"><title>26</title>
<polyline fill="none" stroke="#d6d856" stroke-width="2" points="167,-252 111,-252 "/>
<path fill="none" stroke="#d6d856" stroke-width="2" d="M111,-252C105,-252 99,-246 99,-240"/>
<polyline fill="none" stroke="#d6d856" stroke-width="2" points="99,-240 99,-228 "/>
<path fill="none" stroke="#d6d856" stroke-width="2" d="M99,-228C99,-222 105,-216 111,-216"/>
<polyline fill="none" stroke="#d6d856" stroke-width="2" points="111,-216 167,-216 "/>
<path fill="none" stroke="#d6d856" stroke-width="2" d="M167,-216C173,-216 179,-222 179,-228"/>
<polyline fill="none" stroke="#d6d856" stroke-width="2" points="179,-228 179,-240 "/>
<path fill="none" stroke="#d6d856" stroke-width="2" d="M179,-240C179,-246 173,-252 167,-252"/>
<text text-anchor="middle" x="139" y="-231.5" font-family="sans" font-size="10.00">metaspades</text>
</g>
<!-- 7&#45;&gt;26 -->
<g id="edge66" class="edge"><title>7&#45;&gt;26</title>
<path fill="none" stroke="grey" stroke-width="2" d="M127.037,-287.831C128.749,-280.131 130.783,-270.974 132.685,-262.417"/>
<polygon fill="grey" stroke="grey" points="136.155,-262.934 134.908,-252.413 129.322,-261.416 136.155,-262.934"/>
</g>
<!-- 8 -->
<g id="node9" class="node"><title>8</title>
<polyline fill="none" stroke="#d85656" stroke-width="2" points="322,-396 276,-396 "/>
<path fill="none" stroke="#d85656" stroke-width="2" d="M276,-396C270,-396 264,-390 264,-384"/>
<polyline fill="none" stroke="#d85656" stroke-width="2" points="264,-384 264,-372 "/>
<path fill="none" stroke="#d85656" stroke-width="2" d="M264,-372C264,-366 270,-360 276,-360"/>
<polyline fill="none" stroke="#d85656" stroke-width="2" points="276,-360 322,-360 "/>
<path fill="none" stroke="#d85656" stroke-width="2" d="M322,-360C328,-360 334,-366 334,-372"/>
<polyline fill="none" stroke="#d85656" stroke-width="2" points="334,-372 334,-384 "/>
<path fill="none" stroke="#d85656" stroke-width="2" d="M334,-384C334,-390 328,-396 322,-396"/>
<text text-anchor="middle" x="299" y="-382" font-family="sans" font-size="10.00">subsample</text>
<text text-anchor="middle" x="299" y="-369" font-family="sans" font-size="10.00">R: R1</text>
</g>
<!-- 8&#45;&gt;22 -->
<g id="edge56" class="edge"><title>8&#45;&gt;22</title>
<path fill="none" stroke="grey" stroke-width="2" d="M291.934,-359.831C288.874,-351.962 285.222,-342.571 281.832,-333.853"/>
<polygon fill="grey" stroke="grey" points="285.047,-332.465 278.161,-324.413 278.523,-335.002 285.047,-332.465"/>
</g>
<!-- 9 -->
<g id="node10" class="node"><title>9</title>
<polyline fill="none" stroke="#56d89a" stroke-width="2" points="647,-492 567,-492 "/>
<path fill="none" stroke="#56d89a" stroke-width="2" d="M567,-492C561,-492 555,-486 555,-480"/>
<polyline fill="none" stroke="#56d89a" stroke-width="2" points="555,-480 555,-444 "/>
<path fill="none" stroke="#56d89a" stroke-width="2" d="M555,-444C555,-438 561,-432 567,-432"/>
<polyline fill="none" stroke="#56d89a" stroke-width="2" points="567,-432 647,-432 "/>
<path fill="none" stroke="#56d89a" stroke-width="2" d="M647,-432C653,-432 659,-438 659,-444"/>
<polyline fill="none" stroke="#56d89a" stroke-width="2" points="659,-444 659,-480 "/>
<path fill="none" stroke="#56d89a" stroke-width="2" d="M659,-480C659,-486 653,-492 647,-492"/>
<text text-anchor="middle" x="607" y="-479" font-family="sans" font-size="10.00">combine</text>
<text text-anchor="middle" x="607" y="-466" font-family="sans" font-size="10.00">prep: TruSeqNano</text>
<text text-anchor="middle" x="607" y="-453" font-family="sans" font-size="10.00">sample: 20535</text>
<text text-anchor="middle" x="607" y="-440" font-family="sans" font-size="10.00">size: 400</text>
</g>
<!-- 9&#45;&gt;1 -->
<g id="edge4" class="edge"><title>9&#45;&gt;1</title>
<path fill="none" stroke="grey" stroke-width="2" d="M591.115,-431.674C586.608,-423.07 581.729,-413.755 577.321,-405.339"/>
<polygon fill="grey" stroke="grey" points="580.329,-403.539 572.588,-396.304 574.128,-406.787 580.329,-403.539"/>
</g>
<!-- 15 -->
<g id="node16" class="node"><title>15</title>
<polyline fill="none" stroke="#d85656" stroke-width="2" points="674,-396 628,-396 "/>
<path fill="none" stroke="#d85656" stroke-width="2" d="M628,-396C622,-396 616,-390 616,-384"/>
<polyline fill="none" stroke="#d85656" stroke-width="2" points="616,-384 616,-372 "/>
<path fill="none" stroke="#d85656" stroke-width="2" d="M616,-372C616,-366 622,-360 628,-360"/>
<polyline fill="none" stroke="#d85656" stroke-width="2" points="628,-360 674,-360 "/>
<path fill="none" stroke="#d85656" stroke-width="2" d="M674,-360C680,-360 686,-366 686,-372"/>
<polyline fill="none" stroke="#d85656" stroke-width="2" points="686,-372 686,-384 "/>
<path fill="none" stroke="#d85656" stroke-width="2" d="M686,-384C686,-390 680,-396 674,-396"/>
<text text-anchor="middle" x="651" y="-382" font-family="sans" font-size="10.00">subsample</text>
<text text-anchor="middle" x="651" y="-369" font-family="sans" font-size="10.00">R: R1</text>
</g>
<!-- 9&#45;&gt;15 -->
<g id="edge42" class="edge"><title>9&#45;&gt;15</title>
<path fill="none" stroke="grey" stroke-width="2" d="M622.885,-431.674C627.392,-423.07 632.271,-413.755 636.679,-405.339"/>
<polygon fill="grey" stroke="grey" points="639.872,-406.787 641.412,-396.304 633.671,-403.539 639.872,-406.787"/>
</g>
<!-- 11 -->
<g id="node12" class="node"><title>11</title>
<polyline fill="none" stroke="#59d856" stroke-width="2" points="414,-324 384,-324 "/>
<path fill="none" stroke="#59d856" stroke-width="2" d="M384,-324C378,-324 372,-318 372,-312"/>
<polyline fill="none" stroke="#59d856" stroke-width="2" points="372,-312 372,-300 "/>
<path fill="none" stroke="#59d856" stroke-width="2" d="M372,-300C372,-294 378,-288 384,-288"/>
<polyline fill="none" stroke="#59d856" stroke-width="2" points="384,-288 414,-288 "/>
<path fill="none" stroke="#59d856" stroke-width="2" d="M414,-288C420,-288 426,-294 426,-300"/>
<polyline fill="none" stroke="#59d856" stroke-width="2" points="426,-300 426,-312 "/>
<path fill="none" stroke="#59d856" stroke-width="2" d="M426,-312C426,-318 420,-324 414,-324"/>
<text text-anchor="middle" x="399" y="-303.5" font-family="sans" font-size="10.00">clean</text>
</g>
<!-- 10&#45;&gt;11 -->
<g id="edge22" class="edge"><title>10&#45;&gt;11</title>
<path fill="none" stroke="grey" stroke-width="2" d="M390.028,-359.831C391.312,-352.131 392.838,-342.974 394.264,-334.417"/>
<polygon fill="grey" stroke="grey" points="397.739,-334.853 395.931,-324.413 390.835,-333.702 397.739,-334.853"/>
</g>
<!-- 20 -->
<g id="node21" class="node"><title>20</title>
<polyline fill="none" stroke="#d6d856" stroke-width="2" points="427,-252 371,-252 "/>
<path fill="none" stroke="#d6d856" stroke-width="2" d="M371,-252C365,-252 359,-246 359,-240"/>
<polyline fill="none" stroke="#d6d856" stroke-width="2" points="359,-240 359,-228 "/>
<path fill="none" stroke="#d6d856" stroke-width="2" d="M359,-228C359,-222 365,-216 371,-216"/>
<polyline fill="none" stroke="#d6d856" stroke-width="2" points="371,-216 427,-216 "/>
<path fill="none" stroke="#d6d856" stroke-width="2" d="M427,-216C433,-216 439,-222 439,-228"/>
<polyline fill="none" stroke="#d6d856" stroke-width="2" points="439,-228 439,-240 "/>
<path fill="none" stroke="#d6d856" stroke-width="2" d="M439,-240C439,-246 433,-252 427,-252"/>
<text text-anchor="middle" x="399" y="-231.5" font-family="sans" font-size="10.00">metaspades</text>
</g>
<!-- 11&#45;&gt;20 -->
<g id="edge54" class="edge"><title>11&#45;&gt;20</title>
<path fill="none" stroke="grey" stroke-width="2" d="M399,-287.831C399,-280.131 399,-270.974 399,-262.417"/>
<polygon fill="grey" stroke="grey" points="402.5,-262.413 399,-252.413 395.5,-262.413 402.5,-262.413"/>
</g>
<!-- 12 -->
<g id="node13" class="node"><title>12</title>
<polyline fill="none" stroke="#d89556" stroke-width="2" points="349,-36 319,-36 "/>
<path fill="none" stroke="#d89556" stroke-width="2" d="M319,-36C313,-36 307,-30 307,-24"/>
<polyline fill="none" stroke="#d89556" stroke-width="2" points="307,-24 307,-12 "/>
<path fill="none" stroke="#d89556" stroke-width="2" d="M307,-12C307,-6 313,-1.61846e-14 319,-1.46056e-14"/>
<polyline fill="none" stroke="#d89556" stroke-width="2" points="319,-1.46056e-14 349,-6.71068e-15 "/>
<path fill="none" stroke="#d89556" stroke-width="2" d="M349,-6.71068e-15C355,-5.1317e-15 361,-6 361,-12"/>
<polyline fill="none" stroke="#d89556" stroke-width="2" points="361,-12 361,-24 "/>
<path fill="none" stroke="#d89556" stroke-width="2" d="M361,-24C361,-30 355,-36 349,-36"/>
<text text-anchor="middle" x="334" y="-15.5" font-family="sans" font-size="10.00">all</text>
</g>
<!-- 13 -->
<g id="node14" class="node"><title>13</title>
<polyline fill="none" stroke="#56d8d8" stroke-width="2" points="214,-108 184,-108 "/>
<path fill="none" stroke="#56d8d8" stroke-width="2" d="M184,-108C178,-108 172,-102 172,-96"/>
<polyline fill="none" stroke="#56d8d8" stroke-width="2" points="172,-96 172,-84 "/>
<path fill="none" stroke="#56d8d8" stroke-width="2" d="M172,-84C172,-78 178,-72 184,-72"/>
<polyline fill="none" stroke="#56d8d8" stroke-width="2" points="184,-72 214,-72 "/>
<path fill="none" stroke="#56d8d8" stroke-width="2" d="M214,-72C220,-72 226,-78 226,-84"/>
<polyline fill="none" stroke="#56d8d8" stroke-width="2" points="226,-84 226,-96 "/>
<path fill="none" stroke="#56d8d8" stroke-width="2" d="M226,-96C226,-102 220,-108 214,-108"/>
<text text-anchor="middle" x="199" y="-87.5" font-family="sans" font-size="10.00">quast</text>
</g>
<!-- 13&#45;&gt;12 -->
<g id="edge28" class="edge"><title>13&#45;&gt;12</title>
<path fill="none" stroke="grey" stroke-width="2" d="M226.319,-75.4297C246.905,-64.4507 275.33,-49.2908 297.806,-37.3035"/>
<polygon fill="grey" stroke="grey" points="299.545,-40.3428 306.721,-32.5486 296.251,-34.1663 299.545,-40.3428"/>
</g>
<!-- 14 -->
<g id="node15" class="node"><title>14</title>
<polyline fill="none" stroke="#97d856" stroke-width="2" points="413,-108 365,-108 "/>
<path fill="none" stroke="#97d856" stroke-width="2" d="M365,-108C359,-108 353,-102 353,-96"/>
<polyline fill="none" stroke="#97d856" stroke-width="2" points="353,-96 353,-84 "/>
<path fill="none" stroke="#97d856" stroke-width="2" d="M353,-84C353,-78 359,-72 365,-72"/>
<polyline fill="none" stroke="#97d856" stroke-width="2" points="365,-72 413,-72 "/>
<path fill="none" stroke="#97d856" stroke-width="2" d="M413,-72C419,-72 425,-78 425,-84"/>
<polyline fill="none" stroke="#97d856" stroke-width="2" points="425,-84 425,-96 "/>
<path fill="none" stroke="#97d856" stroke-width="2" d="M425,-96C425,-102 419,-108 413,-108"/>
<text text-anchor="middle" x="389" y="-87.5" font-family="sans" font-size="10.00">metaquast</text>
</g>
<!-- 14&#45;&gt;12 -->
<g id="edge30" class="edge"><title>14&#45;&gt;12</title>
<path fill="none" stroke="grey" stroke-width="2" d="M375.121,-71.8314C368.786,-63.5386 361.162,-53.557 354.207,-44.4533"/>
<polygon fill="grey" stroke="grey" points="356.917,-42.2353 348.066,-36.4133 351.355,-46.4847 356.917,-42.2353"/>
</g>
<!-- 15&#45;&gt;2 -->
<g id="edge8" class="edge"><title>15&#45;&gt;2</title>
<path fill="none" stroke="grey" stroke-width="2" d="M628.794,-359.831C617.955,-350.963 604.756,-340.164 593.032,-330.572"/>
<polygon fill="grey" stroke="grey" points="595.155,-327.786 585.199,-324.163 590.722,-333.204 595.155,-327.786"/>
</g>
<!-- 16 -->
<g id="node17" class="node"><title>16</title>
<polyline fill="none" stroke="#569ad8" stroke-width="2" points="442,-180 356,-180 "/>
<path fill="none" stroke="#569ad8" stroke-width="2" d="M356,-180C350,-180 344,-174 344,-168"/>
<polyline fill="none" stroke="#569ad8" stroke-width="2" points="344,-168 344,-156 "/>
<path fill="none" stroke="#569ad8" stroke-width="2" d="M344,-156C344,-150 350,-144 356,-144"/>
<polyline fill="none" stroke="#569ad8" stroke-width="2" points="356,-144 442,-144 "/>
<path fill="none" stroke="#569ad8" stroke-width="2" d="M442,-144C448,-144 454,-150 454,-156"/>
<polyline fill="none" stroke="#569ad8" stroke-width="2" points="454,-156 454,-168 "/>
<path fill="none" stroke="#569ad8" stroke-width="2" d="M454,-168C454,-174 448,-180 442,-180"/>
<text text-anchor="middle" x="399" y="-159.5" font-family="sans" font-size="10.00">gather_assemblies</text>
</g>
<!-- 16&#45;&gt;14 -->
<g id="edge40" class="edge"><title>16&#45;&gt;14</title>
<path fill="none" stroke="grey" stroke-width="2" d="M396.477,-143.831C395.407,-136.131 394.135,-126.974 392.947,-118.417"/>
<polygon fill="grey" stroke="grey" points="396.4,-117.837 391.557,-108.413 389.466,-118.8 396.4,-117.837"/>
</g>
<!-- 27 -->
<g id="node28" class="node"><title>27</title>
<polyline fill="none" stroke="#56d8d8" stroke-width="2" points="485,-108 455,-108 "/>
<path fill="none" stroke="#56d8d8" stroke-width="2" d="M455,-108C449,-108 443,-102 443,-96"/>
<polyline fill="none" stroke="#56d8d8" stroke-width="2" points="443,-96 443,-84 "/>
<path fill="none" stroke="#56d8d8" stroke-width="2" d="M443,-84C443,-78 449,-72 455,-72"/>
<polyline fill="none" stroke="#56d8d8" stroke-width="2" points="455,-72 485,-72 "/>
<path fill="none" stroke="#56d8d8" stroke-width="2" d="M485,-72C491,-72 497,-78 497,-84"/>
<polyline fill="none" stroke="#56d8d8" stroke-width="2" points="497,-84 497,-96 "/>
<path fill="none" stroke="#56d8d8" stroke-width="2" d="M497,-96C497,-102 491,-108 485,-108"/>
<text text-anchor="middle" x="470" y="-87.5" font-family="sans" font-size="10.00">quast</text>
</g>
<!-- 16&#45;&gt;27 -->
<g id="edge70" class="edge"><title>16&#45;&gt;27</title>
<path fill="none" stroke="grey" stroke-width="2" d="M416.916,-143.831C425.344,-135.285 435.541,-124.944 444.736,-115.62"/>
<polygon fill="grey" stroke="grey" points="447.313,-117.991 451.842,-108.413 442.329,-113.076 447.313,-117.991"/>
</g>
<!-- 17 -->
<g id="node18" class="node"><title>17</title>
<polyline fill="none" stroke="#97d856" stroke-width="2" points="304,-108 256,-108 "/>
<path fill="none" stroke="#97d856" stroke-width="2" d="M256,-108C250,-108 244,-102 244,-96"/>
<polyline fill="none" stroke="#97d856" stroke-width="2" points="244,-96 244,-84 "/>
<path fill="none" stroke="#97d856" stroke-width="2" d="M244,-84C244,-78 250,-72 256,-72"/>
<polyline fill="none" stroke="#97d856" stroke-width="2" points="256,-72 304,-72 "/>
<path fill="none" stroke="#97d856" stroke-width="2" d="M304,-72C310,-72 316,-78 316,-84"/>
<polyline fill="none" stroke="#97d856" stroke-width="2" points="316,-84 316,-96 "/>
<path fill="none" stroke="#97d856" stroke-width="2" d="M316,-96C316,-102 310,-108 304,-108"/>
<text text-anchor="middle" x="280" y="-87.5" font-family="sans" font-size="10.00">metaquast</text>
</g>
<!-- 17&#45;&gt;12 -->
<g id="edge32" class="edge"><title>17&#45;&gt;12</title>
<path fill="none" stroke="grey" stroke-width="2" d="M293.626,-71.8314C299.846,-63.5386 307.332,-53.557 314.16,-44.4533"/>
<polygon fill="grey" stroke="grey" points="316.99,-46.5133 320.19,-36.4133 311.39,-42.3133 316.99,-46.5133"/>
</g>
<!-- 18 -->
<g id="node19" class="node"><title>18</title>
<polyline fill="none" stroke="#569ad8" stroke-width="2" points="186,-180 100,-180 "/>
<path fill="none" stroke="#569ad8" stroke-width="2" d="M100,-180C94,-180 88,-174 88,-168"/>
<polyline fill="none" stroke="#569ad8" stroke-width="2" points="88,-168 88,-156 "/>
<path fill="none" stroke="#569ad8" stroke-width="2" d="M88,-156C88,-150 94,-144 100,-144"/>
<polyline fill="none" stroke="#569ad8" stroke-width="2" points="100,-144 186,-144 "/>
<path fill="none" stroke="#569ad8" stroke-width="2" d="M186,-144C192,-144 198,-150 198,-156"/>
<polyline fill="none" stroke="#569ad8" stroke-width="2" points="198,-156 198,-168 "/>
<path fill="none" stroke="#569ad8" stroke-width="2" d="M198,-168C198,-174 192,-180 186,-180"/>
<text text-anchor="middle" x="143" y="-159.5" font-family="sans" font-size="10.00">gather_assemblies</text>
</g>
<!-- 18&#45;&gt;13 -->
<g id="edge34" class="edge"><title>18&#45;&gt;13</title>
<path fill="none" stroke="grey" stroke-width="2" d="M157.131,-143.831C163.581,-135.539 171.345,-125.557 178.425,-116.453"/>
<polygon fill="grey" stroke="grey" points="181.302,-118.456 184.679,-108.413 175.776,-114.158 181.302,-118.456"/>
</g>
<!-- 18&#45;&gt;17 -->
<g id="edge46" class="edge"><title>18&#45;&gt;17</title>
<path fill="none" stroke="grey" stroke-width="2" d="M177.571,-143.831C195.419,-134.452 217.377,-122.911 236.38,-112.924"/>
<polygon fill="grey" stroke="grey" points="238.216,-115.913 245.44,-108.163 234.96,-109.717 238.216,-115.913"/>
</g>
<!-- 19 -->
<g id="node20" class="node"><title>19</title>
<polyline fill="none" stroke="#d6d856" stroke-width="2" points="299,-252 243,-252 "/>
<path fill="none" stroke="#d6d856" stroke-width="2" d="M243,-252C237,-252 231,-246 231,-240"/>
<polyline fill="none" stroke="#d6d856" stroke-width="2" points="231,-240 231,-228 "/>
<path fill="none" stroke="#d6d856" stroke-width="2" d="M231,-228C231,-222 237,-216 243,-216"/>
<polyline fill="none" stroke="#d6d856" stroke-width="2" points="243,-216 299,-216 "/>
<path fill="none" stroke="#d6d856" stroke-width="2" d="M299,-216C305,-216 311,-222 311,-228"/>
<polyline fill="none" stroke="#d6d856" stroke-width="2" points="311,-228 311,-240 "/>
<path fill="none" stroke="#d6d856" stroke-width="2" d="M311,-240C311,-246 305,-252 299,-252"/>
<text text-anchor="middle" x="271" y="-231.5" font-family="sans" font-size="10.00">metaspades</text>
</g>
<!-- 23 -->
<g id="node24" class="node"><title>23</title>
<polyline fill="none" stroke="#569ad8" stroke-width="2" points="314,-180 228,-180 "/>
<path fill="none" stroke="#569ad8" stroke-width="2" d="M228,-180C222,-180 216,-174 216,-168"/>
<polyline fill="none" stroke="#569ad8" stroke-width="2" points="216,-168 216,-156 "/>
<path fill="none" stroke="#569ad8" stroke-width="2" d="M216,-156C216,-150 222,-144 228,-144"/>
<polyline fill="none" stroke="#569ad8" stroke-width="2" points="228,-144 314,-144 "/>
<path fill="none" stroke="#569ad8" stroke-width="2" d="M314,-144C320,-144 326,-150 326,-156"/>
<polyline fill="none" stroke="#569ad8" stroke-width="2" points="326,-156 326,-168 "/>
<path fill="none" stroke="#569ad8" stroke-width="2" d="M326,-168C326,-174 320,-180 314,-180"/>
<text text-anchor="middle" x="271" y="-159.5" font-family="sans" font-size="10.00">gather_assemblies</text>
</g>
<!-- 19&#45;&gt;23 -->
<g id="edge60" class="edge"><title>19&#45;&gt;23</title>
<path fill="none" stroke="grey" stroke-width="2" d="M271,-215.831C271,-208.131 271,-198.974 271,-190.417"/>
<polygon fill="grey" stroke="grey" points="274.5,-190.413 271,-180.413 267.5,-190.413 274.5,-190.413"/>
</g>
<!-- 20&#45;&gt;16 -->
<g id="edge44" class="edge"><title>20&#45;&gt;16</title>
<path fill="none" stroke="grey" stroke-width="2" d="M399,-215.831C399,-208.131 399,-198.974 399,-190.417"/>
<polygon fill="grey" stroke="grey" points="402.5,-190.413 399,-180.413 395.5,-190.413 402.5,-190.413"/>
</g>
<!-- 21 -->
<g id="node22" class="node"><title>21</title>
<polyline fill="none" stroke="#56d89a" stroke-width="2" points="293,-492 217,-492 "/>
<path fill="none" stroke="#56d89a" stroke-width="2" d="M217,-492C211,-492 205,-486 205,-480"/>
<polyline fill="none" stroke="#56d89a" stroke-width="2" points="205,-480 205,-444 "/>
<path fill="none" stroke="#56d89a" stroke-width="2" d="M205,-444C205,-438 211,-432 217,-432"/>
<polyline fill="none" stroke="#56d89a" stroke-width="2" points="217,-432 293,-432 "/>
<path fill="none" stroke="#56d89a" stroke-width="2" d="M293,-432C299,-432 305,-438 305,-444"/>
<polyline fill="none" stroke="#56d89a" stroke-width="2" points="305,-444 305,-480 "/>
<path fill="none" stroke="#56d89a" stroke-width="2" d="M305,-480C305,-486 299,-492 293,-492"/>
<text text-anchor="middle" x="255" y="-479" font-family="sans" font-size="10.00">combine</text>
<text text-anchor="middle" x="255" y="-466" font-family="sans" font-size="10.00">prep: NexteraXT</text>
<text text-anchor="middle" x="255" y="-453" font-family="sans" font-size="10.00">sample: 18825</text>
<text text-anchor="middle" x="255" y="-440" font-family="sans" font-size="10.00">size: 400</text>
</g>
<!-- 21&#45;&gt;3 -->
<g id="edge10" class="edge"><title>21&#45;&gt;3</title>
<path fill="none" stroke="grey" stroke-width="2" d="M239.115,-431.674C234.608,-423.07 229.729,-413.755 225.321,-405.339"/>
<polygon fill="grey" stroke="grey" points="228.329,-403.539 220.588,-396.304 222.128,-406.787 228.329,-403.539"/>
</g>
<!-- 21&#45;&gt;8 -->
<g id="edge18" class="edge"><title>21&#45;&gt;8</title>
<path fill="none" stroke="grey" stroke-width="2" d="M270.885,-431.674C275.392,-423.07 280.271,-413.755 284.679,-405.339"/>
<polygon fill="grey" stroke="grey" points="287.872,-406.787 289.412,-396.304 281.671,-403.539 287.872,-406.787"/>
</g>
<!-- 22&#45;&gt;19 -->
<g id="edge52" class="edge"><title>22&#45;&gt;19</title>
<path fill="none" stroke="grey" stroke-width="2" d="M271,-287.831C271,-280.131 271,-270.974 271,-262.417"/>
<polygon fill="grey" stroke="grey" points="274.5,-262.413 271,-252.413 267.5,-262.413 274.5,-262.413"/>
</g>
<!-- 23&#45;&gt;13 -->
<g id="edge36" class="edge"><title>23&#45;&gt;13</title>
<path fill="none" stroke="grey" stroke-width="2" d="M252.831,-143.831C244.285,-135.285 233.944,-124.944 224.62,-115.62"/>
<polygon fill="grey" stroke="grey" points="226.959,-113.009 217.413,-108.413 222.009,-117.959 226.959,-113.009"/>
</g>
<!-- 23&#45;&gt;17 -->
<g id="edge48" class="edge"><title>23&#45;&gt;17</title>
<path fill="none" stroke="grey" stroke-width="2" d="M273.271,-143.831C274.234,-136.131 275.378,-126.974 276.448,-118.417"/>
<polygon fill="grey" stroke="grey" points="279.931,-118.77 277.698,-108.413 272.985,-117.902 279.931,-118.77"/>
</g>
<!-- 24&#45;&gt;14 -->
<g id="edge38" class="edge"><title>24&#45;&gt;14</title>
<path fill="none" stroke="grey" stroke-width="2" d="M492.177,-143.831C474.199,-134.452 452.08,-122.911 432.938,-112.924"/>
<polygon fill="grey" stroke="grey" points="434.297,-109.685 423.812,-108.163 431.059,-115.892 434.297,-109.685"/>
</g>
<!-- 24&#45;&gt;27 -->
<g id="edge68" class="edge"><title>24&#45;&gt;27</title>
<path fill="none" stroke="grey" stroke-width="2" d="M512.616,-143.831C506.051,-135.539 498.149,-125.557 490.942,-116.453"/>
<polygon fill="grey" stroke="grey" points="493.528,-114.081 484.577,-108.413 488.04,-118.426 493.528,-114.081"/>
</g>
<!-- 25&#45;&gt;11 -->
<g id="edge24" class="edge"><title>25&#45;&gt;11</title>
<path fill="none" stroke="grey" stroke-width="2" d="M455.822,-359.831C446.641,-351.134 435.499,-340.578 425.522,-331.127"/>
<polygon fill="grey" stroke="grey" points="427.839,-328.499 418.172,-324.163 423.024,-333.581 427.839,-328.499"/>
</g>
<!-- 26&#45;&gt;18 -->
<g id="edge50" class="edge"><title>26&#45;&gt;18</title>
<path fill="none" stroke="grey" stroke-width="2" d="M140.009,-215.831C140.437,-208.131 140.946,-198.974 141.421,-190.417"/>
<polygon fill="grey" stroke="grey" points="144.917,-190.592 141.977,-180.413 137.928,-190.204 144.917,-190.592"/>
</g>
<!-- 27&#45;&gt;12 -->
<g id="edge26" class="edge"><title>27&#45;&gt;12</title>
<path fill="none" stroke="grey" stroke-width="2" d="M442.805,-75.6028C421.958,-64.5658 392.99,-49.23 370.185,-37.1569"/>
<polygon fill="grey" stroke="grey" points="371.623,-33.9579 361.148,-32.3723 368.348,-40.1445 371.623,-33.9579"/>
</g>
<!-- 28&#45;&gt;7 -->
<g id="edge16" class="edge"><title>28&#45;&gt;7</title>
<path fill="none" stroke="grey" stroke-width="2" d="M123,-359.831C123,-352.131 123,-342.974 123,-334.417"/>
<polygon fill="grey" stroke="grey" points="126.5,-334.413 123,-324.413 119.5,-334.413 126.5,-334.413"/>
</g>
</g>
</svg>
